<svg width="124" height="22" viewBox="0 0 124 22" fill="none" xmlns="http://www.w3.org/2000/svg">
<path d="M6.83818 2.57399C8.76218 2.57399 10.4435 2.95532 11.8822 3.71799C13.3209 4.48065 14.4302 5.55532 15.2102 6.94199C16.0075 8.31132 16.4062 9.89732 16.4062 11.7C16.4062 13.4853 16.0075 15.0713 15.2102 16.458C14.4302 17.8447 13.3122 18.9193 11.8562 19.682C10.4175 20.4447 8.74485 20.826 6.83818 20.826H0.000183664V2.57399H6.83818ZM6.55218 16.978C8.23352 16.978 9.54218 16.5187 10.4782 15.6C11.4142 14.6813 11.8822 13.3813 11.8822 11.7C11.8822 10.0187 11.4142 8.70999 10.4782 7.77399C9.54218 6.83799 8.23352 6.36999 6.55218 6.36999H4.44618V16.978H6.55218ZM23.3368 8.73599C23.8568 7.93865 24.5068 7.31465 25.2868 6.86399C26.0668 6.39599 26.9335 6.16199 27.8868 6.16199V10.868H26.6648C25.5555 10.868 24.7235 11.1107 24.1688 11.596C23.6141 12.064 23.3368 12.896 23.3368 14.092V20.826H18.8908V6.31799H23.3368V8.73599ZM32.2479 4.80999C31.4679 4.80999 30.8266 4.58465 30.3239 4.13399C29.8386 3.66599 29.5959 3.09399 29.5959 2.41799C29.5959 1.72465 29.8386 1.15265 30.3239 0.701988C30.8266 0.233987 31.4679 -1.27554e-05 32.2479 -1.27554e-05C33.0106 -1.27554e-05 33.6346 0.233987 34.1199 0.701988C34.6226 1.15265 34.8739 1.72465 34.8739 2.41799C34.8739 3.09399 34.6226 3.66599 34.1199 4.13399C33.6346 4.58465 33.0106 4.80999 32.2479 4.80999ZM34.4579 6.31799V20.826H30.0119V6.31799H34.4579ZM44.2059 16.666L47.3519 6.31799H52.0839L46.9359 20.826H41.4499L36.3019 6.31799H41.0599L44.2059 16.666ZM56.1913 4.80999C55.4113 4.80999 54.7699 4.58465 54.2673 4.13399C53.7819 3.66599 53.5393 3.09399 53.5393 2.41799C53.5393 1.72465 53.7819 1.15265 54.2673 0.701988C54.7699 0.233987 55.4113 -1.27554e-05 56.1913 -1.27554e-05C56.9539 -1.27554e-05 57.5779 0.233987 58.0633 0.701988C58.5659 1.15265 58.8173 1.72465 58.8173 2.41799C58.8173 3.09399 58.5659 3.66599 58.0633 4.13399C57.5779 4.58465 56.9539 4.80999 56.1913 4.80999ZM58.4013 6.31799V20.826H53.9553V6.31799H58.4013ZM60.7392 13.546C60.7392 12.0553 61.0166 10.7467 61.5712 9.61999C62.1432 8.49332 62.9146 7.62665 63.8852 7.01999C64.8559 6.41332 65.9392 6.10999 67.1352 6.10999C68.1579 6.10999 69.0506 6.31799 69.8132 6.73399C70.5932 7.14999 71.1912 7.69599 71.6072 8.37199V6.31799H76.0532V20.826H71.6072V18.772C71.1739 19.448 70.5672 19.994 69.7872 20.41C69.0246 20.826 68.1319 21.034 67.1092 21.034C65.9306 21.034 64.8559 20.7307 63.8852 20.124C62.9146 19.5 62.1432 18.6247 61.5712 17.498C61.0166 16.354 60.7392 15.0367 60.7392 13.546ZM71.6072 13.572C71.6072 12.4627 71.2952 11.5873 70.6712 10.946C70.0646 10.3047 69.3192 9.98399 68.4352 9.98399C67.5512 9.98399 66.7972 10.3047 66.1732 10.946C65.5666 11.57 65.2632 12.4367 65.2632 13.546C65.2632 14.6553 65.5666 15.5393 66.1732 16.198C66.7972 16.8393 67.5512 17.16 68.4352 17.16C69.3192 17.16 70.0646 16.8393 70.6712 16.198C71.2952 15.5567 71.6072 14.6813 71.6072 13.572ZM97.2855 8.00799C97.2855 9.51599 96.7655 10.7727 95.7255 11.778C94.7028 12.766 93.1341 13.26 91.0195 13.26H87.5355V20.826H85.1695V2.70399H91.0195C93.0648 2.70399 94.6161 3.19799 95.6735 4.18599C96.7481 5.17399 97.2855 6.44799 97.2855 8.00799ZM91.0195 11.31C92.3368 11.31 93.3075 11.024 93.9315 10.452C94.5555 9.87999 94.8675 9.06532 94.8675 8.00799C94.8675 5.77199 93.5848 4.65399 91.0195 4.65399H87.5355V11.31H91.0195ZM102.592 8.89199C103.008 8.07732 103.597 7.44465 104.36 6.99399C105.14 6.54332 106.085 6.31799 107.194 6.31799V8.76199H106.57C103.918 8.76199 102.592 10.2007 102.592 13.078V20.826H100.226V6.57799H102.592V8.89199ZM116.139 21.06C114.805 21.06 113.591 20.7567 112.499 20.15C111.425 19.5433 110.575 18.6853 109.951 17.576C109.345 16.4493 109.041 15.1493 109.041 13.676C109.041 12.22 109.353 10.9373 109.977 9.82799C110.619 8.70132 111.485 7.84332 112.577 7.25399C113.669 6.64732 114.891 6.34399 116.243 6.34399C117.595 6.34399 118.817 6.64732 119.909 7.25399C121.001 7.84332 121.859 8.69265 122.483 9.80199C123.125 10.9113 123.445 12.2027 123.445 13.676C123.445 15.1493 123.116 16.4493 122.457 17.576C121.816 18.6853 120.941 19.5433 119.831 20.15C118.722 20.7567 117.491 21.06 116.139 21.06ZM116.139 18.98C116.989 18.98 117.786 18.7807 118.531 18.382C119.277 17.9833 119.875 17.3853 120.325 16.588C120.793 15.7907 121.027 14.82 121.027 13.676C121.027 12.532 120.802 11.5613 120.351 10.764C119.901 9.96665 119.311 9.37732 118.583 8.99599C117.855 8.59732 117.067 8.39799 116.217 8.39799C115.351 8.39799 114.553 8.59732 113.825 8.99599C113.115 9.37732 112.543 9.96665 112.109 10.764C111.676 11.5613 111.459 12.532 111.459 13.676C111.459 14.8373 111.667 15.8167 112.083 16.614C112.517 17.4113 113.089 18.0093 113.799 18.408C114.51 18.7893 115.29 18.98 116.139 18.98Z" fill="#2B3674"/>
</svg>
